<mxfile host="app.diagrams.net" modified="2023-09-10T05:32:58.669Z" agent="Mozilla/5.0 (Windows NT 10.0; Win64; x64) AppleWebKit/537.36 (KHTML, like Gecko) Chrome/116.0.0.0 Safari/537.36" etag="I4Ty7Bs3BJSr0aOxWtoC" version="21.7.4" type="device">
  <diagram name="Page-1" id="1eqtEI0k5y8maDjVporl">
    <mxGraphModel dx="1300" dy="975" grid="1" gridSize="10" guides="1" tooltips="1" connect="1" arrows="1" fold="1" page="1" pageScale="1" pageWidth="850" pageHeight="1100" math="0" shadow="0">
      <root>
        <mxCell id="0" />
        <mxCell id="1" parent="0" />
        <mxCell id="WSJdr_3D9flf3Dt5iijs-1" value="Category" style="rounded=0;whiteSpace=wrap;html=1;" vertex="1" parent="1">
          <mxGeometry x="1627.5" y="460" width="120" height="52.5" as="geometry" />
        </mxCell>
        <mxCell id="WSJdr_3D9flf3Dt5iijs-2" value="Post" style="rounded=0;whiteSpace=wrap;html=1;" vertex="1" parent="1">
          <mxGeometry x="1027.25" y="462.5" width="120" height="60" as="geometry" />
        </mxCell>
        <mxCell id="WSJdr_3D9flf3Dt5iijs-3" value="Tag" style="rounded=0;whiteSpace=wrap;html=1;" vertex="1" parent="1">
          <mxGeometry x="1027.25" y="780" width="120" height="60" as="geometry" />
        </mxCell>
        <mxCell id="WSJdr_3D9flf3Dt5iijs-4" value="Comment" style="rounded=0;whiteSpace=wrap;html=1;" vertex="1" parent="1">
          <mxGeometry x="1487.5" y="780" width="120" height="60" as="geometry" />
        </mxCell>
        <mxCell id="WSJdr_3D9flf3Dt5iijs-5" value="" style="endArrow=none;html=1;rounded=0;exitX=0.25;exitY=0;exitDx=0;exitDy=0;entryX=0.5;entryY=1;entryDx=0;entryDy=0;" edge="1" parent="1" source="WSJdr_3D9flf3Dt5iijs-2" target="WSJdr_3D9flf3Dt5iijs-18">
          <mxGeometry width="50" height="50" relative="1" as="geometry">
            <mxPoint x="1322.25" y="552.5" as="sourcePoint" />
            <mxPoint x="992.25" y="422.5" as="targetPoint" />
          </mxGeometry>
        </mxCell>
        <mxCell id="WSJdr_3D9flf3Dt5iijs-6" value="" style="endArrow=none;html=1;rounded=0;exitX=0.75;exitY=0;exitDx=0;exitDy=0;entryX=0.5;entryY=1;entryDx=0;entryDy=0;" edge="1" parent="1" source="WSJdr_3D9flf3Dt5iijs-2" target="WSJdr_3D9flf3Dt5iijs-19">
          <mxGeometry width="50" height="50" relative="1" as="geometry">
            <mxPoint x="1302.25" y="542.5" as="sourcePoint" />
            <mxPoint x="1218.25" y="430" as="targetPoint" />
          </mxGeometry>
        </mxCell>
        <mxCell id="WSJdr_3D9flf3Dt5iijs-7" value="" style="endArrow=none;html=1;rounded=0;entryX=0.5;entryY=1;entryDx=0;entryDy=0;exitX=0.25;exitY=0;exitDx=0;exitDy=0;" edge="1" parent="1" source="WSJdr_3D9flf3Dt5iijs-1" target="WSJdr_3D9flf3Dt5iijs-21">
          <mxGeometry width="50" height="50" relative="1" as="geometry">
            <mxPoint x="1462.75" y="580" as="sourcePoint" />
            <mxPoint x="1567.75" y="402.5" as="targetPoint" />
          </mxGeometry>
        </mxCell>
        <mxCell id="WSJdr_3D9flf3Dt5iijs-8" value="" style="endArrow=none;html=1;rounded=0;entryX=0.5;entryY=1;entryDx=0;entryDy=0;exitX=0.75;exitY=0;exitDx=0;exitDy=0;" edge="1" parent="1" source="WSJdr_3D9flf3Dt5iijs-1" target="WSJdr_3D9flf3Dt5iijs-22">
          <mxGeometry width="50" height="50" relative="1" as="geometry">
            <mxPoint x="1432.75" y="530" as="sourcePoint" />
            <mxPoint x="1782.25" y="407.5" as="targetPoint" />
          </mxGeometry>
        </mxCell>
        <mxCell id="WSJdr_3D9flf3Dt5iijs-9" value="" style="endArrow=none;html=1;rounded=0;exitX=0.5;exitY=0;exitDx=0;exitDy=0;entryX=0.75;entryY=1;entryDx=0;entryDy=0;" edge="1" parent="1" source="WSJdr_3D9flf3Dt5iijs-20" target="WSJdr_3D9flf3Dt5iijs-3">
          <mxGeometry width="50" height="50" relative="1" as="geometry">
            <mxPoint x="983" y="890" as="sourcePoint" />
            <mxPoint x="1073" y="880" as="targetPoint" />
          </mxGeometry>
        </mxCell>
        <mxCell id="WSJdr_3D9flf3Dt5iijs-10" value="" style="endArrow=none;html=1;rounded=0;exitX=0.5;exitY=0;exitDx=0;exitDy=0;entryX=0.25;entryY=1;entryDx=0;entryDy=0;" edge="1" parent="1" source="WSJdr_3D9flf3Dt5iijs-23" target="WSJdr_3D9flf3Dt5iijs-4">
          <mxGeometry width="50" height="50" relative="1" as="geometry">
            <mxPoint x="1432.5" y="865" as="sourcePoint" />
            <mxPoint x="1392.5" y="770" as="targetPoint" />
          </mxGeometry>
        </mxCell>
        <mxCell id="WSJdr_3D9flf3Dt5iijs-11" value="Tag_ID" style="ellipse;whiteSpace=wrap;html=1;" vertex="1" parent="1">
          <mxGeometry x="970" y="910" width="92.75" height="56.25" as="geometry" />
        </mxCell>
        <mxCell id="WSJdr_3D9flf3Dt5iijs-12" value="" style="endArrow=none;html=1;rounded=0;exitX=0.5;exitY=0;exitDx=0;exitDy=0;entryX=0.25;entryY=1;entryDx=0;entryDy=0;" edge="1" parent="1" source="WSJdr_3D9flf3Dt5iijs-11" target="WSJdr_3D9flf3Dt5iijs-3">
          <mxGeometry width="50" height="50" relative="1" as="geometry">
            <mxPoint x="1293" y="810" as="sourcePoint" />
            <mxPoint x="1012.75" y="860" as="targetPoint" />
            <Array as="points" />
          </mxGeometry>
        </mxCell>
        <mxCell id="WSJdr_3D9flf3Dt5iijs-13" value="" style="endArrow=none;html=1;rounded=0;entryX=0.5;entryY=0;entryDx=0;entryDy=0;exitX=0.75;exitY=1;exitDx=0;exitDy=0;" edge="1" parent="1" source="WSJdr_3D9flf3Dt5iijs-4" target="WSJdr_3D9flf3Dt5iijs-24">
          <mxGeometry width="50" height="50" relative="1" as="geometry">
            <mxPoint x="1252.5" y="880" as="sourcePoint" />
            <mxPoint x="1652.5" y="880" as="targetPoint" />
          </mxGeometry>
        </mxCell>
        <mxCell id="WSJdr_3D9flf3Dt5iijs-14" value="" style="edgeStyle=entityRelationEdgeStyle;fontSize=12;html=1;endArrow=ERmany;startArrow=ERmany;rounded=0;entryX=0.5;entryY=1;entryDx=0;entryDy=0;exitX=0.75;exitY=0;exitDx=0;exitDy=0;" edge="1" parent="1" source="WSJdr_3D9flf3Dt5iijs-3" target="WSJdr_3D9flf3Dt5iijs-2">
          <mxGeometry width="100" height="100" relative="1" as="geometry">
            <mxPoint x="1142.75" y="810" as="sourcePoint" />
            <mxPoint x="1072.75" y="540" as="targetPoint" />
            <Array as="points">
              <mxPoint x="992.0899999999999" y="696.54" />
              <mxPoint x="1032.09" y="696.54" />
              <mxPoint x="987.0899999999999" y="706.54" />
              <mxPoint x="1022.0899999999999" y="666.54" />
              <mxPoint x="1022.0899999999999" y="696.54" />
            </Array>
          </mxGeometry>
        </mxCell>
        <mxCell id="WSJdr_3D9flf3Dt5iijs-15" value="n : m" style="text;strokeColor=none;align=center;fillColor=none;html=1;verticalAlign=middle;whiteSpace=wrap;rounded=0;" vertex="1" parent="1">
          <mxGeometry x="1002.25" y="640" width="60" height="30" as="geometry" />
        </mxCell>
        <mxCell id="WSJdr_3D9flf3Dt5iijs-16" value="n : 1" style="text;html=1;align=center;verticalAlign=middle;resizable=0;points=[];autosize=1;strokeColor=none;fillColor=none;" vertex="1" parent="1">
          <mxGeometry x="1452.75" y="367.5" width="50" height="30" as="geometry" />
        </mxCell>
        <mxCell id="WSJdr_3D9flf3Dt5iijs-17" value="1 : n" style="text;html=1;align=center;verticalAlign=middle;resizable=0;points=[];autosize=1;strokeColor=none;fillColor=none;rotation=1;" vertex="1" parent="1">
          <mxGeometry x="1282.75" y="670" width="50" height="30" as="geometry" />
        </mxCell>
        <mxCell id="WSJdr_3D9flf3Dt5iijs-18" value="Post_ID" style="ellipse;whiteSpace=wrap;html=1;" vertex="1" parent="1">
          <mxGeometry x="972.75" y="340" width="99.5" height="60" as="geometry" />
        </mxCell>
        <mxCell id="WSJdr_3D9flf3Dt5iijs-19" value="Post_Article" style="ellipse;whiteSpace=wrap;html=1;" vertex="1" parent="1">
          <mxGeometry x="1092.75" y="340" width="99.5" height="60" as="geometry" />
        </mxCell>
        <mxCell id="WSJdr_3D9flf3Dt5iijs-20" value="Tags" style="ellipse;whiteSpace=wrap;html=1;" vertex="1" parent="1">
          <mxGeometry x="1112.25" y="910" width="99.5" height="60" as="geometry" />
        </mxCell>
        <mxCell id="WSJdr_3D9flf3Dt5iijs-21" value="Category_ID" style="ellipse;whiteSpace=wrap;html=1;" vertex="1" parent="1">
          <mxGeometry x="1592.75" y="337.5" width="99.5" height="60" as="geometry" />
        </mxCell>
        <mxCell id="WSJdr_3D9flf3Dt5iijs-22" value="Category_Type" style="ellipse;whiteSpace=wrap;html=1;" vertex="1" parent="1">
          <mxGeometry x="1702.25" y="337.5" width="99.5" height="60" as="geometry" />
        </mxCell>
        <mxCell id="WSJdr_3D9flf3Dt5iijs-23" value="Comment_ID" style="ellipse;whiteSpace=wrap;html=1;" vertex="1" parent="1">
          <mxGeometry x="1412.5" y="910" width="99.5" height="60" as="geometry" />
        </mxCell>
        <mxCell id="WSJdr_3D9flf3Dt5iijs-24" value="Comment_Data" style="ellipse;whiteSpace=wrap;html=1;" vertex="1" parent="1">
          <mxGeometry x="1572.75" y="910" width="99.5" height="60" as="geometry" />
        </mxCell>
        <mxCell id="WSJdr_3D9flf3Dt5iijs-25" value="User_Name" style="ellipse;whiteSpace=wrap;html=1;" vertex="1" parent="1">
          <mxGeometry x="1687.75" y="830" width="90" height="60" as="geometry" />
        </mxCell>
        <mxCell id="WSJdr_3D9flf3Dt5iijs-26" value="" style="endArrow=none;html=1;rounded=0;entryX=0;entryY=0.5;entryDx=0;entryDy=0;" edge="1" parent="1" target="WSJdr_3D9flf3Dt5iijs-25">
          <mxGeometry width="50" height="50" relative="1" as="geometry">
            <mxPoint x="1607.5" y="810" as="sourcePoint" />
            <mxPoint x="1692.75" y="845" as="targetPoint" />
          </mxGeometry>
        </mxCell>
        <mxCell id="WSJdr_3D9flf3Dt5iijs-27" value="Event" style="rounded=0;whiteSpace=wrap;html=1;" vertex="1" parent="1">
          <mxGeometry x="1272.75" y="210" width="120" height="60" as="geometry" />
        </mxCell>
        <mxCell id="WSJdr_3D9flf3Dt5iijs-28" value="Event_ID" style="ellipse;whiteSpace=wrap;html=1;" vertex="1" parent="1">
          <mxGeometry x="1237.75" y="110" width="80" height="50" as="geometry" />
        </mxCell>
        <mxCell id="WSJdr_3D9flf3Dt5iijs-29" value="Event_Name" style="ellipse;whiteSpace=wrap;html=1;" vertex="1" parent="1">
          <mxGeometry x="1347.75" y="110" width="80" height="50" as="geometry" />
        </mxCell>
        <mxCell id="WSJdr_3D9flf3Dt5iijs-30" value="" style="endArrow=none;html=1;rounded=0;entryX=0.5;entryY=1;entryDx=0;entryDy=0;exitX=0.75;exitY=0;exitDx=0;exitDy=0;" edge="1" parent="1" source="WSJdr_3D9flf3Dt5iijs-27" target="WSJdr_3D9flf3Dt5iijs-29">
          <mxGeometry width="50" height="50" relative="1" as="geometry">
            <mxPoint x="1162.75" y="280" as="sourcePoint" />
            <mxPoint x="1212.75" y="230" as="targetPoint" />
          </mxGeometry>
        </mxCell>
        <mxCell id="WSJdr_3D9flf3Dt5iijs-31" value="" style="endArrow=none;html=1;rounded=0;entryX=0.5;entryY=1;entryDx=0;entryDy=0;exitX=0.25;exitY=0;exitDx=0;exitDy=0;" edge="1" parent="1" source="WSJdr_3D9flf3Dt5iijs-27" target="WSJdr_3D9flf3Dt5iijs-28">
          <mxGeometry width="50" height="50" relative="1" as="geometry">
            <mxPoint x="1172.75" y="290" as="sourcePoint" />
            <mxPoint x="1222.75" y="240" as="targetPoint" />
          </mxGeometry>
        </mxCell>
        <mxCell id="WSJdr_3D9flf3Dt5iijs-32" value="" style="edgeStyle=entityRelationEdgeStyle;fontSize=12;html=1;endArrow=ERoneToMany;rounded=0;exitX=0;exitY=0.25;exitDx=0;exitDy=0;entryX=1;entryY=0.75;entryDx=0;entryDy=0;" edge="1" parent="1" source="WSJdr_3D9flf3Dt5iijs-1" target="WSJdr_3D9flf3Dt5iijs-27">
          <mxGeometry width="100" height="100" relative="1" as="geometry">
            <mxPoint x="1252.75" y="420" as="sourcePoint" />
            <mxPoint x="1372.75" y="290" as="targetPoint" />
          </mxGeometry>
        </mxCell>
        <mxCell id="WSJdr_3D9flf3Dt5iijs-33" value="n : 1" style="text;html=1;align=center;verticalAlign=middle;resizable=0;points=[];autosize=1;strokeColor=none;fillColor=none;rotation=1;" vertex="1" parent="1">
          <mxGeometry x="1232.75" y="320" width="50" height="30" as="geometry" />
        </mxCell>
        <mxCell id="WSJdr_3D9flf3Dt5iijs-34" value="Organizer" style="rounded=0;whiteSpace=wrap;html=1;" vertex="1" parent="1">
          <mxGeometry x="1612.75" y="210" width="120" height="60" as="geometry" />
        </mxCell>
        <mxCell id="WSJdr_3D9flf3Dt5iijs-35" value="Organizer_ID" style="ellipse;whiteSpace=wrap;html=1;" vertex="1" parent="1">
          <mxGeometry x="1572.75" y="110" width="89" height="55" as="geometry" />
        </mxCell>
        <mxCell id="WSJdr_3D9flf3Dt5iijs-36" value="Organizer_Name" style="ellipse;whiteSpace=wrap;html=1;" vertex="1" parent="1">
          <mxGeometry x="1682.75" y="110" width="100" height="52.5" as="geometry" />
        </mxCell>
        <mxCell id="WSJdr_3D9flf3Dt5iijs-37" value="" style="endArrow=none;html=1;rounded=0;entryX=0.5;entryY=1;entryDx=0;entryDy=0;exitX=0.25;exitY=0;exitDx=0;exitDy=0;" edge="1" parent="1" source="WSJdr_3D9flf3Dt5iijs-34" target="WSJdr_3D9flf3Dt5iijs-35">
          <mxGeometry width="50" height="50" relative="1" as="geometry">
            <mxPoint x="1492.75" y="310" as="sourcePoint" />
            <mxPoint x="1542.75" y="260" as="targetPoint" />
          </mxGeometry>
        </mxCell>
        <mxCell id="WSJdr_3D9flf3Dt5iijs-38" value="" style="endArrow=none;html=1;rounded=0;exitX=0.75;exitY=0;exitDx=0;exitDy=0;entryX=0.5;entryY=1;entryDx=0;entryDy=0;" edge="1" parent="1" source="WSJdr_3D9flf3Dt5iijs-34" target="WSJdr_3D9flf3Dt5iijs-36">
          <mxGeometry width="50" height="50" relative="1" as="geometry">
            <mxPoint x="1772.75" y="220" as="sourcePoint" />
            <mxPoint x="1822.75" y="170" as="targetPoint" />
          </mxGeometry>
        </mxCell>
        <mxCell id="WSJdr_3D9flf3Dt5iijs-39" value="Organizer_Age" style="ellipse;whiteSpace=wrap;html=1;" vertex="1" parent="1">
          <mxGeometry x="1792.75" y="140" width="80" height="55" as="geometry" />
        </mxCell>
        <mxCell id="WSJdr_3D9flf3Dt5iijs-40" value="Organizer_Experiance" style="ellipse;whiteSpace=wrap;html=1;" vertex="1" parent="1">
          <mxGeometry x="1782.75" y="220" width="120" height="60" as="geometry" />
        </mxCell>
        <mxCell id="WSJdr_3D9flf3Dt5iijs-41" value="" style="endArrow=none;html=1;rounded=0;entryX=0;entryY=0.5;entryDx=0;entryDy=0;exitX=1;exitY=0.25;exitDx=0;exitDy=0;" edge="1" parent="1" source="WSJdr_3D9flf3Dt5iijs-34" target="WSJdr_3D9flf3Dt5iijs-39">
          <mxGeometry width="50" height="50" relative="1" as="geometry">
            <mxPoint x="1702.75" y="360" as="sourcePoint" />
            <mxPoint x="1752.75" y="310" as="targetPoint" />
          </mxGeometry>
        </mxCell>
        <mxCell id="WSJdr_3D9flf3Dt5iijs-42" value="" style="endArrow=none;html=1;rounded=0;entryX=0;entryY=0.5;entryDx=0;entryDy=0;exitX=1;exitY=0.75;exitDx=0;exitDy=0;" edge="1" parent="1" source="WSJdr_3D9flf3Dt5iijs-34" target="WSJdr_3D9flf3Dt5iijs-40">
          <mxGeometry width="50" height="50" relative="1" as="geometry">
            <mxPoint x="1712.75" y="370" as="sourcePoint" />
            <mxPoint x="1762.75" y="320" as="targetPoint" />
          </mxGeometry>
        </mxCell>
        <mxCell id="WSJdr_3D9flf3Dt5iijs-43" value="" style="edgeStyle=entityRelationEdgeStyle;fontSize=12;html=1;endArrow=ERmandOne;startArrow=ERmandOne;rounded=0;entryX=0;entryY=0.5;entryDx=0;entryDy=0;exitX=1;exitY=0.5;exitDx=0;exitDy=0;" edge="1" parent="1" source="WSJdr_3D9flf3Dt5iijs-27" target="WSJdr_3D9flf3Dt5iijs-34">
          <mxGeometry width="100" height="100" relative="1" as="geometry">
            <mxPoint x="1462.75" y="310" as="sourcePoint" />
            <mxPoint x="1562.75" y="210" as="targetPoint" />
          </mxGeometry>
        </mxCell>
        <mxCell id="WSJdr_3D9flf3Dt5iijs-44" value="" style="edgeStyle=entityRelationEdgeStyle;fontSize=12;html=1;endArrow=ERoneToMany;rounded=0;exitX=0;exitY=0.5;exitDx=0;exitDy=0;entryX=1;entryY=0.25;entryDx=0;entryDy=0;" edge="1" parent="1" source="WSJdr_3D9flf3Dt5iijs-27" target="WSJdr_3D9flf3Dt5iijs-2">
          <mxGeometry width="100" height="100" relative="1" as="geometry">
            <mxPoint x="1292.75" y="540" as="sourcePoint" />
            <mxPoint x="1392.75" y="440" as="targetPoint" />
          </mxGeometry>
        </mxCell>
        <mxCell id="WSJdr_3D9flf3Dt5iijs-45" value="1 : 1" style="text;html=1;align=center;verticalAlign=middle;resizable=0;points=[];autosize=1;strokeColor=none;fillColor=none;" vertex="1" parent="1">
          <mxGeometry x="1492.75" y="200" width="50" height="30" as="geometry" />
        </mxCell>
        <mxCell id="WSJdr_3D9flf3Dt5iijs-46" value="" style="edgeStyle=entityRelationEdgeStyle;fontSize=12;html=1;endArrow=ERoneToMany;rounded=0;exitX=1;exitY=0.75;exitDx=0;exitDy=0;entryX=0;entryY=0.5;entryDx=0;entryDy=0;" edge="1" parent="1" source="WSJdr_3D9flf3Dt5iijs-2" target="WSJdr_3D9flf3Dt5iijs-4">
          <mxGeometry width="100" height="100" relative="1" as="geometry">
            <mxPoint x="1232.75" y="720" as="sourcePoint" />
            <mxPoint x="1332.75" y="620" as="targetPoint" />
          </mxGeometry>
        </mxCell>
      </root>
    </mxGraphModel>
  </diagram>
</mxfile>
